<?xml version="1.0" encoding="UTF-8" standalone="no"?>
<!DOCTYPE svg PUBLIC "-//W3C//DTD SVG 1.1//EN"
 "http://www.w3.org/Graphics/SVG/1.1/DTD/svg11.dtd">
<!-- Generated by graphviz version 2.40.1 (20161225.0304)
 -->
<!-- Title: dependencies Pages: 1 -->
<svg width="2616pt" height="284pt"
 viewBox="0.00 0.00 2616.00 284.00" xmlns="http://www.w3.org/2000/svg" xmlns:xlink="http://www.w3.org/1999/xlink">
<g id="graph0" class="graph" transform="scale(1 1) rotate(0) translate(4 280)">
<title>dependencies</title>
<polygon fill="#ffffff" stroke="transparent" points="-4,4 -4,-280 2612,-280 2612,4 -4,4"/>
<text text-anchor="start" x="1283.0091" y="-42.4" font-family="sans-serif" font-weight="bold" font-size="14.00" fill="#000000">Legend</text>
<polygon fill="#ffffb3" stroke="transparent" points="1070,-10 1070,-30 1090,-30 1090,-10 1070,-10"/>
<text text-anchor="start" x="1093.629" y="-15.4" font-family="sans-serif" font-size="14.00" fill="#000000"> &#160;Declarations</text>
<polygon fill="#8dd3c7" stroke="transparent" points="1183,-10 1183,-30 1203,-30 1203,-10 1183,-10"/>
<text text-anchor="start" x="1206.7251" y="-15.4" font-family="sans-serif" font-size="14.00" fill="#000000"> &#160;Module</text>
<polygon fill="#80b1d3" stroke="transparent" points="1269,-10 1269,-30 1289,-30 1289,-10 1269,-10"/>
<text text-anchor="start" x="1292.7812" y="-15.4" font-family="sans-serif" font-size="14.00" fill="#000000"> &#160;Bootstrap</text>
<polygon fill="#fdb462" stroke="transparent" points="1366,-10 1366,-30 1386,-30 1386,-10 1366,-10"/>
<text text-anchor="start" x="1389.6732" y="-15.4" font-family="sans-serif" font-size="14.00" fill="#000000"> &#160;Providers</text>
<polygon fill="#fb8072" stroke="transparent" points="1462,-10 1462,-30 1482,-30 1482,-10 1462,-10"/>
<text text-anchor="start" x="1485.7258" y="-15.4" font-family="sans-serif" font-size="14.00" fill="#000000"> &#160;Exports</text>
<g id="clust1" class="cluster">
<title>cluster_AppModule</title>
<polygon fill="none" stroke="#000000" stroke-dasharray="1,5" points="8,-70 8,-268 2600,-268 2600,-70 8,-70"/>
</g>
<g id="clust2" class="cluster">
<title>cluster_AppModule_declarations</title>
<polygon fill="none" stroke="#000000" points="293,-78 293,-130 2592,-130 2592,-78 293,-78"/>
</g>
<g id="clust18" class="cluster">
<title>cluster_AppModule_imports</title>
<polygon fill="none" stroke="#000000" points="16,-78 16,-130 285,-130 285,-78 16,-78"/>
</g>
<g id="clust20" class="cluster">
<title>cluster_AppModule_bootstrap</title>
<polygon fill="none" stroke="#000000" points="1289,-208 1289,-260 1413,-260 1413,-208 1289,-208"/>
</g>
<!-- AppComponent -->
<g id="node1" class="node">
<title>AppComponent</title>
<polygon fill="#ffffb3" stroke="#000000" points="2583.9399,-122 2478.0601,-122 2478.0601,-86 2583.9399,-86 2583.9399,-122"/>
<text text-anchor="middle" x="2531" y="-99.8" font-family="Times,serif" font-size="14.00" fill="#000000">AppComponent</text>
</g>
<!-- AppModule -->
<g id="node16" class="node">
<title>AppModule</title>
<polygon fill="#8dd3c7" stroke="#000000" points="1392.6571,-187 1389.6571,-191 1368.6571,-191 1365.6571,-187 1309.3429,-187 1309.3429,-151 1392.6571,-151 1392.6571,-187"/>
<text text-anchor="middle" x="1351" y="-164.8" font-family="Times,serif" font-size="14.00" fill="#000000">AppModule</text>
</g>
<!-- AppComponent&#45;&gt;AppModule -->
<g id="edge1" class="edge">
<title>AppComponent&#45;&gt;AppModule</title>
<path fill="none" stroke="#000000" d="M2531,-122.3228C2531,-145.6602 2531,-183 2531,-183 2531,-183 1402.9968,-183 1402.9968,-183"/>
<polygon fill="#000000" stroke="#000000" points="1402.9969,-179.5001 1392.9968,-183 1402.9968,-186.5001 1402.9969,-179.5001"/>
</g>
<!-- SigninComponent -->
<g id="node2" class="node">
<title>SigninComponent</title>
<polygon fill="#ffffb3" stroke="#000000" points="2459.8962,-122 2342.1038,-122 2342.1038,-86 2459.8962,-86 2459.8962,-122"/>
<text text-anchor="middle" x="2401" y="-99.8" font-family="Times,serif" font-size="14.00" fill="#000000">SigninComponent</text>
</g>
<!-- SigninComponent&#45;&gt;AppModule -->
<g id="edge2" class="edge">
<title>SigninComponent&#45;&gt;AppModule</title>
<path fill="none" stroke="#000000" d="M2401,-122.1554C2401,-144.3519 2401,-179 2401,-179 2401,-179 1402.8092,-179 1402.8092,-179"/>
<polygon fill="#000000" stroke="#000000" points="1402.8092,-175.5001 1392.8092,-179 1402.8092,-182.5001 1402.8092,-175.5001"/>
</g>
<!-- DiclaimerComponent -->
<g id="node3" class="node">
<title>DiclaimerComponent</title>
<polygon fill="#ffffb3" stroke="#000000" points="2323.8061,-122 2186.1939,-122 2186.1939,-86 2323.8061,-86 2323.8061,-122"/>
<text text-anchor="middle" x="2255" y="-99.8" font-family="Times,serif" font-size="14.00" fill="#000000">DiclaimerComponent</text>
</g>
<!-- DiclaimerComponent&#45;&gt;AppModule -->
<g id="edge3" class="edge">
<title>DiclaimerComponent&#45;&gt;AppModule</title>
<path fill="none" stroke="#000000" d="M2255,-122.2843C2255,-143.3211 2255,-175 2255,-175 2255,-175 1402.7888,-175 1402.7888,-175"/>
<polygon fill="#000000" stroke="#000000" points="1402.7888,-171.5001 1392.7888,-175 1402.7887,-178.5001 1402.7888,-171.5001"/>
</g>
<!-- FooterComponent -->
<g id="node4" class="node">
<title>FooterComponent</title>
<polygon fill="#ffffb3" stroke="#000000" points="2167.8809,-122 2050.1191,-122 2050.1191,-86 2167.8809,-86 2167.8809,-122"/>
<text text-anchor="middle" x="2109" y="-99.8" font-family="Times,serif" font-size="14.00" fill="#000000">FooterComponent</text>
</g>
<!-- FooterComponent&#45;&gt;AppModule -->
<g id="edge4" class="edge">
<title>FooterComponent&#45;&gt;AppModule</title>
<path fill="none" stroke="#000000" d="M2109,-122.308C2109,-142.1455 2109,-171 2109,-171 2109,-171 1402.8331,-171 1402.8331,-171"/>
<polygon fill="#000000" stroke="#000000" points="1402.8331,-167.5001 1392.8331,-171 1402.833,-174.5001 1402.8331,-167.5001"/>
</g>
<!-- HeaderComponent -->
<g id="node5" class="node">
<title>HeaderComponent</title>
<polygon fill="#ffffb3" stroke="#000000" points="2031.7437,-122 1910.2563,-122 1910.2563,-86 2031.7437,-86 2031.7437,-122"/>
<text text-anchor="middle" x="1971" y="-99.8" font-family="Times,serif" font-size="14.00" fill="#000000">HeaderComponent</text>
</g>
<!-- HeaderComponent&#45;&gt;AppModule -->
<g id="edge5" class="edge">
<title>HeaderComponent&#45;&gt;AppModule</title>
<path fill="none" stroke="#000000" d="M1971,-122.2222C1971,-140.8285 1971,-167 1971,-167 1971,-167 1403.1277,-167 1403.1277,-167"/>
<polygon fill="#000000" stroke="#000000" points="1403.1277,-163.5001 1393.1277,-167 1403.1276,-170.5001 1403.1277,-163.5001"/>
</g>
<!-- RecordtimerComponent -->
<g id="node6" class="node">
<title>RecordtimerComponent</title>
<polygon fill="#ffffb3" stroke="#000000" points="1891.8061,-122 1740.1939,-122 1740.1939,-86 1891.8061,-86 1891.8061,-122"/>
<text text-anchor="middle" x="1816" y="-99.8" font-family="Times,serif" font-size="14.00" fill="#000000">RecordtimerComponent</text>
</g>
<!-- RecordtimerComponent&#45;&gt;AppModule -->
<g id="edge6" class="edge">
<title>RecordtimerComponent&#45;&gt;AppModule</title>
<path fill="none" stroke="#000000" d="M1816,-122.0225C1816,-139.3734 1816,-163 1816,-163 1816,-163 1402.6749,-163 1402.6749,-163"/>
<polygon fill="#000000" stroke="#000000" points="1402.6749,-159.5001 1392.6749,-163 1402.6748,-166.5001 1402.6749,-159.5001"/>
</g>
<!-- PresetsComponent -->
<g id="node7" class="node">
<title>PresetsComponent</title>
<polygon fill="#ffffb3" stroke="#000000" points="1722.4846,-122 1601.5154,-122 1601.5154,-86 1722.4846,-86 1722.4846,-122"/>
<text text-anchor="middle" x="1662" y="-99.8" font-family="Times,serif" font-size="14.00" fill="#000000">PresetsComponent</text>
</g>
<!-- PresetsComponent&#45;&gt;AppModule -->
<g id="edge7" class="edge">
<title>PresetsComponent&#45;&gt;AppModule</title>
<path fill="none" stroke="#000000" d="M1662,-122.0091C1662,-138.0494 1662,-159 1662,-159 1662,-159 1402.9428,-159 1402.9428,-159"/>
<polygon fill="#000000" stroke="#000000" points="1402.9429,-155.5001 1392.9428,-159 1402.9428,-162.5001 1402.9429,-155.5001"/>
</g>
<!-- CourselistComponent -->
<g id="node8" class="node">
<title>CourselistComponent</title>
<polygon fill="#ffffb3" stroke="#000000" points="1583.1052,-122 1444.8948,-122 1444.8948,-86 1583.1052,-86 1583.1052,-122"/>
<text text-anchor="middle" x="1514" y="-99.8" font-family="Times,serif" font-size="14.00" fill="#000000">CourselistComponent</text>
</g>
<!-- CourselistComponent&#45;&gt;AppModule -->
<g id="edge8" class="edge">
<title>CourselistComponent&#45;&gt;AppModule</title>
<path fill="none" stroke="#000000" d="M1514,-122.1243C1514,-136.7832 1514,-155 1514,-155 1514,-155 1402.9766,-155 1402.9766,-155"/>
<polygon fill="#000000" stroke="#000000" points="1402.9766,-151.5001 1392.9766,-155 1402.9765,-158.5001 1402.9766,-151.5001"/>
</g>
<!-- CoursedetailComponent -->
<g id="node9" class="node">
<title>CoursedetailComponent</title>
<polygon fill="#ffffb3" stroke="#000000" points="1427.0898,-122 1274.9102,-122 1274.9102,-86 1427.0898,-86 1427.0898,-122"/>
<text text-anchor="middle" x="1351" y="-99.8" font-family="Times,serif" font-size="14.00" fill="#000000">CoursedetailComponent</text>
</g>
<!-- CoursedetailComponent&#45;&gt;AppModule -->
<g id="edge9" class="edge">
<title>CoursedetailComponent&#45;&gt;AppModule</title>
<path fill="none" stroke="#000000" d="M1351,-122.1061C1351,-122.1061 1351,-140.991 1351,-140.991"/>
<polygon fill="#000000" stroke="#000000" points="1347.5001,-140.9909 1351,-150.991 1354.5001,-140.991 1347.5001,-140.9909"/>
</g>
<!-- CameracontrolComponent -->
<g id="node10" class="node">
<title>CameracontrolComponent</title>
<polygon fill="#ffffb3" stroke="#000000" points="1257.0211,-122 1092.9789,-122 1092.9789,-86 1257.0211,-86 1257.0211,-122"/>
<text text-anchor="middle" x="1175" y="-99.8" font-family="Times,serif" font-size="14.00" fill="#000000">CameracontrolComponent</text>
</g>
<!-- CameracontrolComponent&#45;&gt;AppModule -->
<g id="edge10" class="edge">
<title>CameracontrolComponent&#45;&gt;AppModule</title>
<path fill="none" stroke="#000000" d="M1175,-122.1243C1175,-136.7832 1175,-155 1175,-155 1175,-155 1299.2905,-155 1299.2905,-155"/>
<polygon fill="#000000" stroke="#000000" points="1299.2905,-158.5001 1309.2905,-155 1299.2904,-151.5001 1299.2905,-158.5001"/>
</g>
<!-- AvComponent -->
<g id="node11" class="node">
<title>AvComponent</title>
<polygon fill="#ffffb3" stroke="#000000" points="1075.44,-122 976.56,-122 976.56,-86 1075.44,-86 1075.44,-122"/>
<text text-anchor="middle" x="1026" y="-99.8" font-family="Times,serif" font-size="14.00" fill="#000000">AvComponent</text>
</g>
<!-- AvComponent&#45;&gt;AppModule -->
<g id="edge11" class="edge">
<title>AvComponent&#45;&gt;AppModule</title>
<path fill="none" stroke="#000000" d="M1026,-122.0091C1026,-138.0494 1026,-159 1026,-159 1026,-159 1299.1773,-159 1299.1773,-159"/>
<polygon fill="#000000" stroke="#000000" points="1299.1773,-162.5001 1309.1773,-159 1299.1772,-155.5001 1299.1773,-162.5001"/>
</g>
<!-- StreamcontrolComponent -->
<g id="node12" class="node">
<title>StreamcontrolComponent</title>
<polygon fill="#ffffb3" stroke="#000000" points="958.1428,-122 797.8572,-122 797.8572,-86 958.1428,-86 958.1428,-122"/>
<text text-anchor="middle" x="878" y="-99.8" font-family="Times,serif" font-size="14.00" fill="#000000">StreamcontrolComponent</text>
</g>
<!-- StreamcontrolComponent&#45;&gt;AppModule -->
<g id="edge12" class="edge">
<title>StreamcontrolComponent&#45;&gt;AppModule</title>
<path fill="none" stroke="#000000" d="M878,-122.0225C878,-139.3734 878,-163 878,-163 878,-163 1299.0244,-163 1299.0244,-163"/>
<polygon fill="#000000" stroke="#000000" points="1299.0244,-166.5001 1309.0244,-163 1299.0244,-159.5001 1299.0244,-166.5001"/>
</g>
<!-- CapturemainComponent -->
<g id="node13" class="node">
<title>CapturemainComponent</title>
<polygon fill="#ffffb3" stroke="#000000" points="779.6456,-122 626.3544,-122 626.3544,-86 779.6456,-86 779.6456,-122"/>
<text text-anchor="middle" x="703" y="-99.8" font-family="Times,serif" font-size="14.00" fill="#000000">CapturemainComponent</text>
</g>
<!-- CapturemainComponent&#45;&gt;AppModule -->
<g id="edge13" class="edge">
<title>CapturemainComponent&#45;&gt;AppModule</title>
<path fill="none" stroke="#000000" d="M703,-122.2222C703,-140.8285 703,-167 703,-167 703,-167 1298.9822,-167 1298.9822,-167"/>
<polygon fill="#000000" stroke="#000000" points="1298.9822,-170.5001 1308.9822,-167 1298.9822,-163.5001 1298.9822,-170.5001"/>
</g>
<!-- WelcomeComponent -->
<g id="node14" class="node">
<title>WelcomeComponent</title>
<polygon fill="#ffffb3" stroke="#000000" points="608.472,-122 473.528,-122 473.528,-86 608.472,-86 608.472,-122"/>
<text text-anchor="middle" x="541" y="-99.8" font-family="Times,serif" font-size="14.00" fill="#000000">WelcomeComponent</text>
</g>
<!-- WelcomeComponent&#45;&gt;AppModule -->
<g id="edge14" class="edge">
<title>WelcomeComponent&#45;&gt;AppModule</title>
<path fill="none" stroke="#000000" d="M541,-122.308C541,-142.1455 541,-171 541,-171 541,-171 1299.1565,-171 1299.1565,-171"/>
<polygon fill="#000000" stroke="#000000" points="1299.1566,-174.5001 1309.1565,-171 1299.1565,-167.5001 1299.1566,-174.5001"/>
</g>
<!-- ManagementComponent -->
<g id="node15" class="node">
<title>ManagementComponent</title>
<polygon fill="#ffffb3" stroke="#000000" points="455.4172,-122 300.5828,-122 300.5828,-86 455.4172,-86 455.4172,-122"/>
<text text-anchor="middle" x="378" y="-99.8" font-family="Times,serif" font-size="14.00" fill="#000000">ManagementComponent</text>
</g>
<!-- ManagementComponent&#45;&gt;AppModule -->
<g id="edge15" class="edge">
<title>ManagementComponent&#45;&gt;AppModule</title>
<path fill="none" stroke="#000000" d="M378,-122.2843C378,-143.3211 378,-175 378,-175 378,-175 1299.1914,-175 1299.1914,-175"/>
<polygon fill="#000000" stroke="#000000" points="1299.1914,-178.5001 1309.1914,-175 1299.1914,-171.5001 1299.1914,-178.5001"/>
</g>
<!-- AppComponent  -->
<g id="node19" class="node">
<title>AppComponent </title>
<polygon fill="#80b1d3" stroke="#000000" points="1405.439,-252 1296.561,-252 1296.561,-216 1405.439,-216 1405.439,-252"/>
<text text-anchor="middle" x="1351" y="-229.8" font-family="Times,serif" font-size="14.00" fill="#000000">AppComponent </text>
</g>
<!-- AppModule&#45;&gt;AppComponent  -->
<g id="edge18" class="edge">
<title>AppModule&#45;&gt;AppComponent </title>
<path fill="none" stroke="#000000" stroke-dasharray="1,5" d="M1351,-187.1061C1351,-187.1061 1351,-205.991 1351,-205.991"/>
<polygon fill="#000000" stroke="#000000" points="1347.5001,-205.9909 1351,-215.991 1354.5001,-205.991 1347.5001,-205.9909"/>
</g>
<!-- MaterailModule -->
<g id="node17" class="node">
<title>MaterailModule</title>
<polygon fill="#8dd3c7" stroke="#000000" points="277.4706,-122 274.4706,-126 253.4706,-126 250.4706,-122 170.5294,-122 170.5294,-86 277.4706,-86 277.4706,-122"/>
<text text-anchor="middle" x="224" y="-99.8" font-family="Times,serif" font-size="14.00" fill="#000000">MaterailModule</text>
</g>
<!-- MaterailModule&#45;&gt;AppModule -->
<g id="edge16" class="edge">
<title>MaterailModule&#45;&gt;AppModule</title>
<path fill="none" stroke="#000000" d="M224,-122.1554C224,-144.3519 224,-179 224,-179 224,-179 1299.2156,-179 1299.2156,-179"/>
<polygon fill="#000000" stroke="#000000" points="1299.2157,-182.5001 1309.2156,-179 1299.2156,-175.5001 1299.2157,-182.5001"/>
</g>
<!-- AppRoutingMudule -->
<g id="node18" class="node">
<title>AppRoutingMudule</title>
<polygon fill="#8dd3c7" stroke="#000000" points="152.2744,-122 149.2744,-126 128.2744,-126 125.2744,-122 23.7256,-122 23.7256,-86 152.2744,-86 152.2744,-122"/>
<text text-anchor="middle" x="88" y="-99.8" font-family="Times,serif" font-size="14.00" fill="#000000">AppRoutingMudule</text>
</g>
<!-- AppRoutingMudule&#45;&gt;AppModule -->
<g id="edge17" class="edge">
<title>AppRoutingMudule&#45;&gt;AppModule</title>
<path fill="none" stroke="#000000" d="M88,-122.3228C88,-145.6602 88,-183 88,-183 88,-183 1299.3375,-183 1299.3375,-183"/>
<polygon fill="#000000" stroke="#000000" points="1299.3375,-186.5001 1309.3375,-183 1299.3374,-179.5001 1299.3375,-186.5001"/>
</g>
</g>
</svg>
