<?xml version="1.0" encoding="UTF-8" standalone="no"?>
<!DOCTYPE svg PUBLIC "-//W3C//DTD SVG 1.1//EN"
 "http://www.w3.org/Graphics/SVG/1.1/DTD/svg11.dtd">
<!-- Generated by graphviz version 2.40.1 (20161225.0304)
 -->
<!-- Title: dependencies Pages: 1 -->
<svg width="2144pt" height="284pt"
 viewBox="0.00 0.00 2144.00 284.00" xmlns="http://www.w3.org/2000/svg" xmlns:xlink="http://www.w3.org/1999/xlink">
<g id="graph0" class="graph" transform="scale(1 1) rotate(0) translate(4 280)">
<title>dependencies</title>
<polygon fill="#ffffff" stroke="transparent" points="-4,4 -4,-280 2140,-280 2140,4 -4,4"/>
<text text-anchor="start" x="1047.0091" y="-42.4" font-family="sans-serif" font-weight="bold" font-size="14.00" fill="#000000">Legend</text>
<polygon fill="#ffffb3" stroke="transparent" points="834,-10 834,-30 854,-30 854,-10 834,-10"/>
<text text-anchor="start" x="857.629" y="-15.4" font-family="sans-serif" font-size="14.00" fill="#000000"> &#160;Declarations</text>
<polygon fill="#8dd3c7" stroke="transparent" points="947,-10 947,-30 967,-30 967,-10 947,-10"/>
<text text-anchor="start" x="970.7251" y="-15.4" font-family="sans-serif" font-size="14.00" fill="#000000"> &#160;Module</text>
<polygon fill="#80b1d3" stroke="transparent" points="1033,-10 1033,-30 1053,-30 1053,-10 1033,-10"/>
<text text-anchor="start" x="1056.7812" y="-15.4" font-family="sans-serif" font-size="14.00" fill="#000000"> &#160;Bootstrap</text>
<polygon fill="#fdb462" stroke="transparent" points="1130,-10 1130,-30 1150,-30 1150,-10 1130,-10"/>
<text text-anchor="start" x="1153.6732" y="-15.4" font-family="sans-serif" font-size="14.00" fill="#000000"> &#160;Providers</text>
<polygon fill="#fb8072" stroke="transparent" points="1226,-10 1226,-30 1246,-30 1246,-10 1226,-10"/>
<text text-anchor="start" x="1249.7258" y="-15.4" font-family="sans-serif" font-size="14.00" fill="#000000"> &#160;Exports</text>
<g id="clust1" class="cluster">
<title>cluster_AppModule</title>
<polygon fill="none" stroke="#000000" stroke-dasharray="1,5" points="8,-70 8,-268 2128,-268 2128,-70 8,-70"/>
</g>
<g id="clust2" class="cluster">
<title>cluster_AppModule_declarations</title>
<polygon fill="none" stroke="#000000" points="146,-78 146,-130 2120,-130 2120,-78 146,-78"/>
</g>
<g id="clust16" class="cluster">
<title>cluster_AppModule_imports</title>
<polygon fill="none" stroke="#000000" points="16,-78 16,-130 138,-130 138,-78 16,-78"/>
</g>
<g id="clust18" class="cluster">
<title>cluster_AppModule_bootstrap</title>
<polygon fill="none" stroke="#000000" points="1054,-208 1054,-260 1178,-260 1178,-208 1054,-208"/>
</g>
<!-- AppComponent -->
<g id="node1" class="node">
<title>AppComponent</title>
<polygon fill="#ffffb3" stroke="#000000" points="2111.9399,-122 2006.0601,-122 2006.0601,-86 2111.9399,-86 2111.9399,-122"/>
<text text-anchor="middle" x="2059" y="-99.8" font-family="Times,serif" font-size="14.00" fill="#000000">AppComponent</text>
</g>
<!-- AppModule -->
<g id="node14" class="node">
<title>AppModule</title>
<polygon fill="#8dd3c7" stroke="#000000" points="1157.6571,-187 1154.6571,-191 1133.6571,-191 1130.6571,-187 1074.3429,-187 1074.3429,-151 1157.6571,-151 1157.6571,-187"/>
<text text-anchor="middle" x="1116" y="-164.8" font-family="Times,serif" font-size="14.00" fill="#000000">AppModule</text>
</g>
<!-- AppComponent&#45;&gt;AppModule -->
<g id="edge1" class="edge">
<title>AppComponent&#45;&gt;AppModule</title>
<path fill="none" stroke="#000000" d="M2059,-122.0908C2059,-145.1328 2059,-182 2059,-182 2059,-182 1167.7363,-182 1167.7363,-182"/>
<polygon fill="#000000" stroke="#000000" points="1167.7363,-178.5001 1157.7363,-182 1167.7363,-185.5001 1167.7363,-178.5001"/>
</g>
<!-- SigninComponent -->
<g id="node2" class="node">
<title>SigninComponent</title>
<polygon fill="#ffffb3" stroke="#000000" points="1987.8962,-122 1870.1038,-122 1870.1038,-86 1987.8962,-86 1987.8962,-122"/>
<text text-anchor="middle" x="1929" y="-99.8" font-family="Times,serif" font-size="14.00" fill="#000000">SigninComponent</text>
</g>
<!-- SigninComponent&#45;&gt;AppModule -->
<g id="edge2" class="edge">
<title>SigninComponent&#45;&gt;AppModule</title>
<path fill="none" stroke="#000000" d="M1929,-122.0449C1929,-143.6623 1929,-177 1929,-177 1929,-177 1167.716,-177 1167.716,-177"/>
<polygon fill="#000000" stroke="#000000" points="1167.7161,-173.5001 1157.716,-177 1167.716,-180.5001 1167.7161,-173.5001"/>
</g>
<!-- DiclaimerComponent -->
<g id="node3" class="node">
<title>DiclaimerComponent</title>
<polygon fill="#ffffb3" stroke="#000000" points="1851.8061,-122 1714.1939,-122 1714.1939,-86 1851.8061,-86 1851.8061,-122"/>
<text text-anchor="middle" x="1783" y="-99.8" font-family="Times,serif" font-size="14.00" fill="#000000">DiclaimerComponent</text>
</g>
<!-- DiclaimerComponent&#45;&gt;AppModule -->
<g id="edge3" class="edge">
<title>DiclaimerComponent&#45;&gt;AppModule</title>
<path fill="none" stroke="#000000" d="M1783,-122.2228C1783,-142.3652 1783,-172 1783,-172 1783,-172 1167.7238,-172 1167.7238,-172"/>
<polygon fill="#000000" stroke="#000000" points="1167.7239,-168.5001 1157.7238,-172 1167.7238,-175.5001 1167.7239,-168.5001"/>
</g>
<!-- FooterComponent -->
<g id="node4" class="node">
<title>FooterComponent</title>
<polygon fill="#ffffb3" stroke="#000000" points="1695.8809,-122 1578.1191,-122 1578.1191,-86 1695.8809,-86 1695.8809,-122"/>
<text text-anchor="middle" x="1637" y="-99.8" font-family="Times,serif" font-size="14.00" fill="#000000">FooterComponent</text>
</g>
<!-- FooterComponent&#45;&gt;AppModule -->
<g id="edge4" class="edge">
<title>FooterComponent&#45;&gt;AppModule</title>
<path fill="none" stroke="#000000" d="M1637,-122.2222C1637,-140.8285 1637,-167 1637,-167 1637,-167 1167.7549,-167 1167.7549,-167"/>
<polygon fill="#000000" stroke="#000000" points="1167.755,-163.5001 1157.7549,-167 1167.7549,-170.5001 1167.755,-163.5001"/>
</g>
<!-- HeaderComponent -->
<g id="node5" class="node">
<title>HeaderComponent</title>
<polygon fill="#ffffb3" stroke="#000000" points="1559.7437,-122 1438.2563,-122 1438.2563,-86 1559.7437,-86 1559.7437,-122"/>
<text text-anchor="middle" x="1499" y="-99.8" font-family="Times,serif" font-size="14.00" fill="#000000">HeaderComponent</text>
</g>
<!-- HeaderComponent&#45;&gt;AppModule -->
<g id="edge5" class="edge">
<title>HeaderComponent&#45;&gt;AppModule</title>
<path fill="none" stroke="#000000" d="M1499,-122.0336C1499,-139.0597 1499,-162 1499,-162 1499,-162 1167.7168,-162 1167.7168,-162"/>
<polygon fill="#000000" stroke="#000000" points="1167.7168,-158.5001 1157.7168,-162 1167.7168,-165.5001 1167.7168,-158.5001"/>
</g>
<!-- RecordtimerComponent -->
<g id="node6" class="node">
<title>RecordtimerComponent</title>
<polygon fill="#ffffb3" stroke="#000000" points="1419.8061,-122 1268.1939,-122 1268.1939,-86 1419.8061,-86 1419.8061,-122"/>
<text text-anchor="middle" x="1344" y="-99.8" font-family="Times,serif" font-size="14.00" fill="#000000">RecordtimerComponent</text>
</g>
<!-- RecordtimerComponent&#45;&gt;AppModule -->
<g id="edge6" class="edge">
<title>RecordtimerComponent&#45;&gt;AppModule</title>
<path fill="none" stroke="#000000" d="M1344,-122.2396C1344,-137.5706 1344,-157 1344,-157 1344,-157 1167.8187,-157 1167.8187,-157"/>
<polygon fill="#000000" stroke="#000000" points="1167.8187,-153.5001 1157.8187,-157 1167.8187,-160.5001 1167.8187,-153.5001"/>
</g>
<!-- PresetsComponent -->
<g id="node7" class="node">
<title>PresetsComponent</title>
<polygon fill="#ffffb3" stroke="#000000" points="1250.4846,-122 1129.5154,-122 1129.5154,-86 1250.4846,-86 1250.4846,-122"/>
<text text-anchor="middle" x="1190" y="-99.8" font-family="Times,serif" font-size="14.00" fill="#000000">PresetsComponent</text>
</g>
<!-- PresetsComponent&#45;&gt;AppModule -->
<g id="edge7" class="edge">
<title>PresetsComponent&#45;&gt;AppModule</title>
<path fill="none" stroke="#000000" d="M1143.668,-122.1061C1143.668,-122.1061 1143.668,-140.991 1143.668,-140.991"/>
<polygon fill="#000000" stroke="#000000" points="1140.168,-140.9909 1143.668,-150.991 1147.168,-140.991 1140.168,-140.9909"/>
</g>
<!-- CourselistComponent -->
<g id="node8" class="node">
<title>CourselistComponent</title>
<polygon fill="#ffffb3" stroke="#000000" points="1111.1052,-122 972.8948,-122 972.8948,-86 1111.1052,-86 1111.1052,-122"/>
<text text-anchor="middle" x="1042" y="-99.8" font-family="Times,serif" font-size="14.00" fill="#000000">CourselistComponent</text>
</g>
<!-- CourselistComponent&#45;&gt;AppModule -->
<g id="edge8" class="edge">
<title>CourselistComponent&#45;&gt;AppModule</title>
<path fill="none" stroke="#000000" d="M1092.6122,-122.1061C1092.6122,-122.1061 1092.6122,-140.991 1092.6122,-140.991"/>
<polygon fill="#000000" stroke="#000000" points="1089.1123,-140.9909 1092.6122,-150.991 1096.1123,-140.991 1089.1123,-140.9909"/>
</g>
<!-- CoursedetailComponent -->
<g id="node9" class="node">
<title>CoursedetailComponent</title>
<polygon fill="#ffffb3" stroke="#000000" points="955.0898,-122 802.9102,-122 802.9102,-86 955.0898,-86 955.0898,-122"/>
<text text-anchor="middle" x="879" y="-99.8" font-family="Times,serif" font-size="14.00" fill="#000000">CoursedetailComponent</text>
</g>
<!-- CoursedetailComponent&#45;&gt;AppModule -->
<g id="edge9" class="edge">
<title>CoursedetailComponent&#45;&gt;AppModule</title>
<path fill="none" stroke="#000000" d="M879,-122.2396C879,-137.5706 879,-157 879,-157 879,-157 1064.1747,-157 1064.1747,-157"/>
<polygon fill="#000000" stroke="#000000" points="1064.1747,-160.5001 1074.1747,-157 1064.1747,-153.5001 1064.1747,-160.5001"/>
</g>
<!-- CameracontrolComponent -->
<g id="node10" class="node">
<title>CameracontrolComponent</title>
<polygon fill="#ffffb3" stroke="#000000" points="785.0211,-122 620.9789,-122 620.9789,-86 785.0211,-86 785.0211,-122"/>
<text text-anchor="middle" x="703" y="-99.8" font-family="Times,serif" font-size="14.00" fill="#000000">CameracontrolComponent</text>
</g>
<!-- CameracontrolComponent&#45;&gt;AppModule -->
<g id="edge10" class="edge">
<title>CameracontrolComponent&#45;&gt;AppModule</title>
<path fill="none" stroke="#000000" d="M703,-122.0336C703,-139.0597 703,-162 703,-162 703,-162 1064.1265,-162 1064.1265,-162"/>
<polygon fill="#000000" stroke="#000000" points="1064.1266,-165.5001 1074.1265,-162 1064.1265,-158.5001 1064.1266,-165.5001"/>
</g>
<!-- AvComponent -->
<g id="node11" class="node">
<title>AvComponent</title>
<polygon fill="#ffffb3" stroke="#000000" points="603.44,-122 504.56,-122 504.56,-86 603.44,-86 603.44,-122"/>
<text text-anchor="middle" x="554" y="-99.8" font-family="Times,serif" font-size="14.00" fill="#000000">AvComponent</text>
</g>
<!-- AvComponent&#45;&gt;AppModule -->
<g id="edge11" class="edge">
<title>AvComponent&#45;&gt;AppModule</title>
<path fill="none" stroke="#000000" d="M554,-122.2222C554,-140.8285 554,-167 554,-167 554,-167 1064.2178,-167 1064.2178,-167"/>
<polygon fill="#000000" stroke="#000000" points="1064.2178,-170.5001 1074.2178,-167 1064.2178,-163.5001 1064.2178,-170.5001"/>
</g>
<!-- StreamcontrolComponent -->
<g id="node12" class="node">
<title>StreamcontrolComponent</title>
<polygon fill="#ffffb3" stroke="#000000" points="486.1428,-122 325.8572,-122 325.8572,-86 486.1428,-86 486.1428,-122"/>
<text text-anchor="middle" x="406" y="-99.8" font-family="Times,serif" font-size="14.00" fill="#000000">StreamcontrolComponent</text>
</g>
<!-- StreamcontrolComponent&#45;&gt;AppModule -->
<g id="edge12" class="edge">
<title>StreamcontrolComponent&#45;&gt;AppModule</title>
<path fill="none" stroke="#000000" d="M406,-122.2228C406,-142.3652 406,-172 406,-172 406,-172 1064.237,-172 1064.237,-172"/>
<polygon fill="#000000" stroke="#000000" points="1064.237,-175.5001 1074.237,-172 1064.2369,-168.5001 1064.237,-175.5001"/>
</g>
<!-- CapturemainComponent -->
<g id="node13" class="node">
<title>CapturemainComponent</title>
<polygon fill="#ffffb3" stroke="#000000" points="307.6456,-122 154.3544,-122 154.3544,-86 307.6456,-86 307.6456,-122"/>
<text text-anchor="middle" x="231" y="-99.8" font-family="Times,serif" font-size="14.00" fill="#000000">CapturemainComponent</text>
</g>
<!-- CapturemainComponent&#45;&gt;AppModule -->
<g id="edge13" class="edge">
<title>CapturemainComponent&#45;&gt;AppModule</title>
<path fill="none" stroke="#000000" d="M231,-122.0449C231,-143.6623 231,-177 231,-177 231,-177 1064.2063,-177 1064.2063,-177"/>
<polygon fill="#000000" stroke="#000000" points="1064.2063,-180.5001 1074.2063,-177 1064.2062,-173.5001 1064.2063,-180.5001"/>
</g>
<!-- AppComponent  -->
<g id="node16" class="node">
<title>AppComponent </title>
<polygon fill="#80b1d3" stroke="#000000" points="1170.439,-252 1061.561,-252 1061.561,-216 1170.439,-216 1170.439,-252"/>
<text text-anchor="middle" x="1116" y="-229.8" font-family="Times,serif" font-size="14.00" fill="#000000">AppComponent </text>
</g>
<!-- AppModule&#45;&gt;AppComponent  -->
<g id="edge15" class="edge">
<title>AppModule&#45;&gt;AppComponent </title>
<path fill="none" stroke="#000000" stroke-dasharray="1,5" d="M1116,-187.1061C1116,-187.1061 1116,-205.991 1116,-205.991"/>
<polygon fill="#000000" stroke="#000000" points="1112.5001,-205.9909 1116,-215.991 1119.5001,-205.991 1112.5001,-205.9909"/>
</g>
<!-- MaterailModule -->
<g id="node15" class="node">
<title>MaterailModule</title>
<polygon fill="#8dd3c7" stroke="#000000" points="130.4706,-122 127.4706,-126 106.4706,-126 103.4706,-122 23.5294,-122 23.5294,-86 130.4706,-86 130.4706,-122"/>
<text text-anchor="middle" x="77" y="-99.8" font-family="Times,serif" font-size="14.00" fill="#000000">MaterailModule</text>
</g>
<!-- MaterailModule&#45;&gt;AppModule -->
<g id="edge14" class="edge">
<title>MaterailModule&#45;&gt;AppModule</title>
<path fill="none" stroke="#000000" d="M77,-122.0908C77,-145.1328 77,-182 77,-182 77,-182 1064.3065,-182 1064.3065,-182"/>
<polygon fill="#000000" stroke="#000000" points="1064.3066,-185.5001 1074.3065,-182 1064.3065,-178.5001 1064.3066,-185.5001"/>
</g>
</g>
</svg>
