<?xml version="1.0" encoding="UTF-8" standalone="no"?>
<!DOCTYPE svg PUBLIC "-//W3C//DTD SVG 1.1//EN"
 "http://www.w3.org/Graphics/SVG/1.1/DTD/svg11.dtd">
<!-- Generated by graphviz version 2.40.1 (20161225.0304)
 -->
<!-- Title: dependencies Pages: 1 -->
<svg width="4132pt" height="360pt"
 viewBox="0.00 0.00 4132.00 360.00" xmlns="http://www.w3.org/2000/svg" xmlns:xlink="http://www.w3.org/1999/xlink">
<g id="graph0" class="graph" transform="scale(1 1) rotate(0) translate(4 356)">
<title>dependencies</title>
<polygon fill="#ffffff" stroke="transparent" points="-4,4 -4,-356 4128,-356 4128,4 -4,4"/>
<text text-anchor="start" x="2041.0091" y="-42.4" font-family="sans-serif" font-weight="bold" font-size="14.00" fill="#000000">Legend</text>
<polygon fill="#ffffb3" stroke="transparent" points="1828,-10 1828,-30 1848,-30 1848,-10 1828,-10"/>
<text text-anchor="start" x="1851.629" y="-15.4" font-family="sans-serif" font-size="14.00" fill="#000000"> &#160;Declarations</text>
<polygon fill="#8dd3c7" stroke="transparent" points="1941,-10 1941,-30 1961,-30 1961,-10 1941,-10"/>
<text text-anchor="start" x="1964.7251" y="-15.4" font-family="sans-serif" font-size="14.00" fill="#000000"> &#160;Module</text>
<polygon fill="#80b1d3" stroke="transparent" points="2027,-10 2027,-30 2047,-30 2047,-10 2027,-10"/>
<text text-anchor="start" x="2050.7812" y="-15.4" font-family="sans-serif" font-size="14.00" fill="#000000"> &#160;Bootstrap</text>
<polygon fill="#fdb462" stroke="transparent" points="2124,-10 2124,-30 2144,-30 2144,-10 2124,-10"/>
<text text-anchor="start" x="2147.6732" y="-15.4" font-family="sans-serif" font-size="14.00" fill="#000000"> &#160;Providers</text>
<polygon fill="#fb8072" stroke="transparent" points="2220,-10 2220,-30 2240,-30 2240,-10 2220,-10"/>
<text text-anchor="start" x="2243.7258" y="-15.4" font-family="sans-serif" font-size="14.00" fill="#000000"> &#160;Exports</text>
<g id="clust1" class="cluster">
<title>cluster_AppModule</title>
<polygon fill="none" stroke="#000000" stroke-dasharray="1,5" points="8,-146 8,-344 4116,-344 4116,-146 8,-146"/>
</g>
<g id="clust2" class="cluster">
<title>cluster_AppModule_declarations</title>
<polygon fill="none" stroke="#000000" points="1115,-154 1115,-206 4108,-206 4108,-154 1115,-154"/>
</g>
<g id="clust21" class="cluster">
<title>cluster_AppModule_imports</title>
<polygon fill="none" stroke="#000000" points="838,-154 838,-206 1107,-206 1107,-154 838,-154"/>
</g>
<g id="clust23" class="cluster">
<title>cluster_AppModule_bootstrap</title>
<polygon fill="none" stroke="#000000" points="2125,-284 2125,-336 2249,-336 2249,-284 2125,-284"/>
</g>
<g id="clust24" class="cluster">
<title>cluster_AppModule_providers</title>
<polygon fill="none" stroke="#000000" points="16,-154 16,-206 830,-206 830,-154 16,-154"/>
</g>
<g id="clust25" class="cluster">
<title>cluster_AppRoutingMudule</title>
<polygon fill="none" stroke="#000000" stroke-dasharray="1,5" points="840,-70 840,-138 980,-138 980,-70 840,-70"/>
</g>
<g id="clust30" class="cluster">
<title>cluster_AppRoutingMudule_providers</title>
<polygon fill="none" stroke="#000000" points="848,-78 848,-130 972,-130 972,-78 848,-78"/>
</g>
<!-- AppComponent -->
<g id="node1" class="node">
<title>AppComponent</title>
<polygon fill="#ffffb3" stroke="#000000" points="4099.9399,-198 3994.0601,-198 3994.0601,-162 4099.9399,-162 4099.9399,-198"/>
<text text-anchor="middle" x="4047" y="-175.8" font-family="Times,serif" font-size="14.00" fill="#000000">AppComponent</text>
</g>
<!-- AppModule -->
<g id="node19" class="node">
<title>AppModule</title>
<polygon fill="#8dd3c7" stroke="#000000" points="2228.6571,-263 2225.6571,-267 2204.6571,-267 2201.6571,-263 2145.3429,-263 2145.3429,-227 2228.6571,-227 2228.6571,-263"/>
<text text-anchor="middle" x="2187" y="-240.8" font-family="Times,serif" font-size="14.00" fill="#000000">AppModule</text>
</g>
<!-- AppComponent&#45;&gt;AppModule -->
<g id="edge1" class="edge">
<title>AppComponent&#45;&gt;AppModule</title>
<path fill="none" stroke="#000000" d="M4047,-198.3802C4047,-222.2785 4047,-261 4047,-261 4047,-261 2238.8989,-261 2238.8989,-261"/>
<polygon fill="#000000" stroke="#000000" points="2238.899,-257.5001 2228.8989,-261 2238.8989,-264.5001 2238.899,-257.5001"/>
</g>
<!-- WelcomeComponent -->
<g id="node2" class="node">
<title>WelcomeComponent</title>
<polygon fill="#ffffb3" stroke="#000000" points="3976.472,-198 3841.528,-198 3841.528,-162 3976.472,-162 3976.472,-198"/>
<text text-anchor="middle" x="3909" y="-175.8" font-family="Times,serif" font-size="14.00" fill="#000000">WelcomeComponent</text>
</g>
<!-- WelcomeComponent&#45;&gt;AppModule -->
<g id="edge2" class="edge">
<title>WelcomeComponent&#45;&gt;AppModule</title>
<path fill="none" stroke="#000000" d="M3909,-198.0908C3909,-221.1328 3909,-258 3909,-258 3909,-258 2238.7133,-258 2238.7133,-258"/>
<polygon fill="#000000" stroke="#000000" points="2238.7133,-254.5001 2228.7133,-258 2238.7133,-261.5001 2238.7133,-254.5001"/>
</g>
<!-- CourselistsComponent -->
<g id="node3" class="node">
<title>CourselistsComponent</title>
<polygon fill="#ffffb3" stroke="#000000" points="3823.5505,-198 3680.4495,-198 3680.4495,-162 3823.5505,-162 3823.5505,-198"/>
<text text-anchor="middle" x="3752" y="-175.8" font-family="Times,serif" font-size="14.00" fill="#000000">CourselistsComponent</text>
</g>
<!-- CourselistsComponent&#45;&gt;AppModule -->
<g id="edge3" class="edge">
<title>CourselistsComponent&#45;&gt;AppModule</title>
<path fill="none" stroke="#000000" d="M3752,-198.1554C3752,-220.3519 3752,-255 3752,-255 3752,-255 2238.86,-255 2238.86,-255"/>
<polygon fill="#000000" stroke="#000000" points="2238.86,-251.5001 2228.86,-255 2238.8599,-258.5001 2238.86,-251.5001"/>
</g>
<!-- CourseItemComponent -->
<g id="node4" class="node">
<title>CourseItemComponent</title>
<polygon fill="#ffffb3" stroke="#000000" points="3662.1456,-198 3515.8544,-198 3515.8544,-162 3662.1456,-162 3662.1456,-198"/>
<text text-anchor="middle" x="3589" y="-175.8" font-family="Times,serif" font-size="14.00" fill="#000000">CourseItemComponent</text>
</g>
<!-- CourseItemComponent&#45;&gt;AppModule -->
<g id="edge4" class="edge">
<title>CourseItemComponent&#45;&gt;AppModule</title>
<path fill="none" stroke="#000000" d="M3589,-198.1686C3589,-219.498 3589,-252 3589,-252 3589,-252 2238.9591,-252 2238.9591,-252"/>
<polygon fill="#000000" stroke="#000000" points="2238.9591,-248.5001 2228.9591,-252 2238.959,-255.5001 2238.9591,-248.5001"/>
</g>
<!-- LeftsliderComponent -->
<g id="node5" class="node">
<title>LeftsliderComponent</title>
<polygon fill="#ffffb3" stroke="#000000" points="3497.752,-198 3362.248,-198 3362.248,-162 3497.752,-162 3497.752,-198"/>
<text text-anchor="middle" x="3430" y="-175.8" font-family="Times,serif" font-size="14.00" fill="#000000">LeftsliderComponent</text>
</g>
<!-- LeftsliderComponent&#45;&gt;AppModule -->
<g id="edge5" class="edge">
<title>LeftsliderComponent&#45;&gt;AppModule</title>
<path fill="none" stroke="#000000" d="M3430,-198.0267C3430,-218.7672 3430,-250 3430,-250 3430,-250 2238.7123,-250 2238.7123,-250"/>
<polygon fill="#000000" stroke="#000000" points="2238.7123,-246.5001 2228.7123,-250 2238.7122,-253.5001 2238.7123,-246.5001"/>
</g>
<!-- AdhocmodalComponent -->
<g id="node6" class="node">
<title>AdhocmodalComponent</title>
<polygon fill="#ffffb3" stroke="#000000" points="3343.6498,-198 3190.3502,-198 3190.3502,-162 3343.6498,-162 3343.6498,-198"/>
<text text-anchor="middle" x="3267" y="-175.8" font-family="Times,serif" font-size="14.00" fill="#000000">AdhocmodalComponent</text>
</g>
<!-- AdhocmodalComponent&#45;&gt;AppModule -->
<g id="edge6" class="edge">
<title>AdhocmodalComponent&#45;&gt;AppModule</title>
<path fill="none" stroke="#000000" d="M3292.6082,-198.308C3292.6082,-218.1455 3292.6082,-247 3292.6082,-247 3292.6082,-247 2238.9911,-247 2238.9911,-247"/>
<polygon fill="#000000" stroke="#000000" points="2238.9911,-243.5001 2228.9911,-247 2238.9911,-250.5001 2238.9911,-243.5001"/>
</g>
<!-- AdhocmodalComponent&#45;&gt;AppModule -->
<g id="edge21" class="edge">
<title>AdhocmodalComponent&#45;&gt;AppModule</title>
<path fill="none" stroke="#000000" d="M3241.3918,-198.1686C3241.3918,-217.0898 3241.3918,-244 3241.3918,-244 3241.3918,-244 2238.6582,-244 2238.6582,-244"/>
<polygon fill="#000000" stroke="#000000" points="2238.6582,-240.5001 2228.6582,-244 2238.6581,-247.5001 2238.6582,-240.5001"/>
</g>
<!-- CaptureComponent -->
<g id="node7" class="node">
<title>CaptureComponent</title>
<polygon fill="#ffffb3" stroke="#000000" points="3171.6499,-198 3046.3501,-198 3046.3501,-162 3171.6499,-162 3171.6499,-198"/>
<text text-anchor="middle" x="3109" y="-175.8" font-family="Times,serif" font-size="14.00" fill="#000000">CaptureComponent</text>
</g>
<!-- CaptureComponent&#45;&gt;AppModule -->
<g id="edge7" class="edge">
<title>CaptureComponent&#45;&gt;AppModule</title>
<path fill="none" stroke="#000000" d="M3109,-198.302C3109,-216.2699 3109,-241 3109,-241 3109,-241 2238.7094,-241 2238.7094,-241"/>
<polygon fill="#000000" stroke="#000000" points="2238.7095,-237.5001 2228.7094,-241 2238.7094,-244.5001 2238.7095,-237.5001"/>
</g>
<!-- TimerComponent -->
<g id="node8" class="node">
<title>TimerComponent</title>
<polygon fill="#ffffb3" stroke="#000000" points="3027.5423,-198 2912.4577,-198 2912.4577,-162 3027.5423,-162 3027.5423,-198"/>
<text text-anchor="middle" x="2970" y="-175.8" font-family="Times,serif" font-size="14.00" fill="#000000">TimerComponent</text>
</g>
<!-- TimerComponent&#45;&gt;AppModule -->
<g id="edge8" class="edge">
<title>TimerComponent&#45;&gt;AppModule</title>
<path fill="none" stroke="#000000" d="M2970,-198.0225C2970,-215.3734 2970,-239 2970,-239 2970,-239 2238.8207,-239 2238.8207,-239"/>
<polygon fill="#000000" stroke="#000000" points="2238.8207,-235.5001 2228.8207,-239 2238.8206,-242.5001 2238.8207,-235.5001"/>
</g>
<!-- PresetComponent -->
<g id="node9" class="node">
<title>PresetComponent</title>
<polygon fill="#ffffb3" stroke="#000000" points="2893.5409,-198 2778.4591,-198 2778.4591,-162 2893.5409,-162 2893.5409,-198"/>
<text text-anchor="middle" x="2836" y="-175.8" font-family="Times,serif" font-size="14.00" fill="#000000">PresetComponent</text>
</g>
<!-- PresetComponent&#45;&gt;AppModule -->
<g id="edge9" class="edge">
<title>PresetComponent&#45;&gt;AppModule</title>
<path fill="none" stroke="#000000" d="M2836,-198.027C2836,-214.3976 2836,-236 2836,-236 2836,-236 2239.0826,-236 2239.0826,-236"/>
<polygon fill="#000000" stroke="#000000" points="2239.0827,-232.5001 2229.0826,-236 2239.0826,-239.5001 2239.0827,-232.5001"/>
</g>
<!-- SinglestreamcontrolComponent -->
<g id="node10" class="node">
<title>SinglestreamcontrolComponent</title>
<polygon fill="#ffffb3" stroke="#000000" points="2760.0828,-198 2565.9172,-198 2565.9172,-162 2760.0828,-162 2760.0828,-198"/>
<text text-anchor="middle" x="2663" y="-175.8" font-family="Times,serif" font-size="14.00" fill="#000000">SinglestreamcontrolComponent</text>
</g>
<!-- SinglestreamcontrolComponent&#45;&gt;AppModule -->
<g id="edge10" class="edge">
<title>SinglestreamcontrolComponent&#45;&gt;AppModule</title>
<path fill="none" stroke="#000000" d="M2663,-198.2396C2663,-213.5706 2663,-233 2663,-233 2663,-233 2238.8246,-233 2238.8246,-233"/>
<polygon fill="#000000" stroke="#000000" points="2238.8247,-229.5001 2228.8246,-233 2238.8246,-236.5001 2238.8247,-229.5001"/>
</g>
<!-- DoublestreamcontrolComponent -->
<g id="node11" class="node">
<title>DoublestreamcontrolComponent</title>
<polygon fill="#ffffb3" stroke="#000000" points="2547.5168,-198 2348.4832,-198 2348.4832,-162 2547.5168,-162 2547.5168,-198"/>
<text text-anchor="middle" x="2448" y="-175.8" font-family="Times,serif" font-size="14.00" fill="#000000">DoublestreamcontrolComponent</text>
</g>
<!-- DoublestreamcontrolComponent&#45;&gt;AppModule -->
<g id="edge11" class="edge">
<title>DoublestreamcontrolComponent&#45;&gt;AppModule</title>
<path fill="none" stroke="#000000" d="M2448,-198.0511C2448,-212.373 2448,-230 2448,-230 2448,-230 2238.9342,-230 2238.9342,-230"/>
<polygon fill="#000000" stroke="#000000" points="2238.9342,-226.5001 2228.9342,-230 2238.9341,-233.5001 2238.9342,-226.5001"/>
</g>
<!-- PreviewsComponent -->
<g id="node12" class="node">
<title>PreviewsComponent</title>
<polygon fill="#ffffb3" stroke="#000000" points="2330.1471,-198 2197.8529,-198 2197.8529,-162 2330.1471,-162 2330.1471,-198"/>
<text text-anchor="middle" x="2264" y="-175.8" font-family="Times,serif" font-size="14.00" fill="#000000">PreviewsComponent</text>
</g>
<!-- PreviewsComponent&#45;&gt;AppModule -->
<g id="edge12" class="edge">
<title>PreviewsComponent&#45;&gt;AppModule</title>
<path fill="none" stroke="#000000" d="M2208.0605,-198.1061C2208.0605,-198.1061 2208.0605,-216.991 2208.0605,-216.991"/>
<polygon fill="#000000" stroke="#000000" points="2204.5606,-216.9909 2208.0605,-226.991 2211.5606,-216.991 2204.5606,-216.9909"/>
</g>
<!-- PreviewsComponent&#45;&gt;AppModule -->
<g id="edge18" class="edge">
<title>PreviewsComponent&#45;&gt;AppModule</title>
<path fill="none" stroke="#000000" d="M2218.4444,-198.1061C2218.4444,-198.1061 2218.4444,-216.991 2218.4444,-216.991"/>
<polygon fill="#000000" stroke="#000000" points="2214.9445,-216.9909 2218.4444,-226.991 2221.9445,-216.991 2214.9445,-216.9909"/>
</g>
<!-- CourselistComponent -->
<g id="node13" class="node">
<title>CourselistComponent</title>
<polygon fill="#ffffb3" stroke="#000000" points="2180.1052,-198 2041.8948,-198 2041.8948,-162 2180.1052,-162 2180.1052,-198"/>
<text text-anchor="middle" x="2111" y="-175.8" font-family="Times,serif" font-size="14.00" fill="#000000">CourselistComponent</text>
</g>
<!-- CourselistComponent&#45;&gt;AppModule -->
<g id="edge13" class="edge">
<title>CourselistComponent&#45;&gt;AppModule</title>
<path fill="none" stroke="#000000" d="M2162.6122,-198.1061C2162.6122,-198.1061 2162.6122,-216.991 2162.6122,-216.991"/>
<polygon fill="#000000" stroke="#000000" points="2159.1123,-216.9909 2162.6122,-226.991 2166.1123,-216.991 2159.1123,-216.9909"/>
</g>
<!-- PtzcontrolmodalComponent -->
<g id="node14" class="node">
<title>PtzcontrolmodalComponent</title>
<polygon fill="#ffffb3" stroke="#000000" points="2023.8724,-198 1850.1276,-198 1850.1276,-162 2023.8724,-162 2023.8724,-198"/>
<text text-anchor="middle" x="1937" y="-175.8" font-family="Times,serif" font-size="14.00" fill="#000000">PtzcontrolmodalComponent</text>
</g>
<!-- PtzcontrolmodalComponent&#45;&gt;AppModule -->
<g id="edge14" class="edge">
<title>PtzcontrolmodalComponent&#45;&gt;AppModule</title>
<path fill="none" stroke="#000000" d="M1908.0213,-198.2396C1908.0213,-213.5706 1908.0213,-233 1908.0213,-233 1908.0213,-233 2135.2341,-233 2135.2341,-233"/>
<polygon fill="#000000" stroke="#000000" points="2135.2341,-236.5001 2145.2341,-233 2135.234,-229.5001 2135.2341,-236.5001"/>
</g>
<!-- PtzcontrolmodalComponent&#45;&gt;AppModule -->
<g id="edge20" class="edge">
<title>PtzcontrolmodalComponent&#45;&gt;AppModule</title>
<path fill="none" stroke="#000000" d="M1965.9787,-198.0511C1965.9787,-212.373 1965.9787,-230 1965.9787,-230 1965.9787,-230 2135.1678,-230 2135.1678,-230"/>
<polygon fill="#000000" stroke="#000000" points="2135.1678,-233.5001 2145.1678,-230 2135.1677,-226.5001 2135.1678,-233.5001"/>
</g>
<!-- CoursedetailComponent -->
<g id="node15" class="node">
<title>CoursedetailComponent</title>
<polygon fill="#ffffb3" stroke="#000000" points="1832.0898,-198 1679.9102,-198 1679.9102,-162 1832.0898,-162 1832.0898,-198"/>
<text text-anchor="middle" x="1756" y="-175.8" font-family="Times,serif" font-size="14.00" fill="#000000">CoursedetailComponent</text>
</g>
<!-- CoursedetailComponent&#45;&gt;AppModule -->
<g id="edge15" class="edge">
<title>CoursedetailComponent&#45;&gt;AppModule</title>
<path fill="none" stroke="#000000" d="M1756,-198.0091C1756,-214.0494 1756,-235 1756,-235 1756,-235 2135.2823,-235 2135.2823,-235"/>
<polygon fill="#000000" stroke="#000000" points="2135.2823,-238.5001 2145.2823,-235 2135.2823,-231.5001 2135.2823,-238.5001"/>
</g>
<!-- CourseeditmodalComponent -->
<g id="node16" class="node">
<title>CourseeditmodalComponent</title>
<polygon fill="#ffffb3" stroke="#000000" points="1661.4804,-198 1484.5196,-198 1484.5196,-162 1661.4804,-162 1661.4804,-198"/>
<text text-anchor="middle" x="1573" y="-175.8" font-family="Times,serif" font-size="14.00" fill="#000000">CourseeditmodalComponent</text>
</g>
<!-- CourseeditmodalComponent&#45;&gt;AppModule -->
<g id="edge16" class="edge">
<title>CourseeditmodalComponent&#45;&gt;AppModule</title>
<path fill="none" stroke="#000000" d="M1573,-198.0336C1573,-215.0597 1573,-238 1573,-238 1573,-238 2135.28,-238 2135.28,-238"/>
<polygon fill="#000000" stroke="#000000" points="2135.28,-241.5001 2145.28,-238 2135.28,-234.5001 2135.28,-241.5001"/>
</g>
<!-- StreamcontrolComponent -->
<g id="node17" class="node">
<title>StreamcontrolComponent</title>
<polygon fill="#ffffb3" stroke="#000000" points="1466.1428,-198 1305.8572,-198 1305.8572,-162 1466.1428,-162 1466.1428,-198"/>
<text text-anchor="middle" x="1386" y="-175.8" font-family="Times,serif" font-size="14.00" fill="#000000">StreamcontrolComponent</text>
</g>
<!-- StreamcontrolComponent&#45;&gt;AppModule -->
<g id="edge17" class="edge">
<title>StreamcontrolComponent&#45;&gt;AppModule</title>
<path fill="none" stroke="#000000" d="M1386,-198.002C1386,-215.6754 1386,-240 1386,-240 1386,-240 2135.3424,-240 2135.3424,-240"/>
<polygon fill="#000000" stroke="#000000" points="2135.3425,-243.5001 2145.3424,-240 2135.3424,-236.5001 2135.3425,-243.5001"/>
</g>
<!-- AuthenticationComponent -->
<g id="node18" class="node">
<title>AuthenticationComponent</title>
<polygon fill="#ffffb3" stroke="#000000" points="1287.0365,-198 1122.9635,-198 1122.9635,-162 1287.0365,-162 1287.0365,-198"/>
<text text-anchor="middle" x="1205" y="-175.8" font-family="Times,serif" font-size="14.00" fill="#000000">AuthenticationComponent</text>
</g>
<!-- AuthenticationComponent&#45;&gt;AppModule -->
<g id="edge19" class="edge">
<title>AuthenticationComponent&#45;&gt;AppModule</title>
<path fill="none" stroke="#000000" d="M1205,-198.2222C1205,-216.8285 1205,-243 1205,-243 1205,-243 2135.1188,-243 2135.1188,-243"/>
<polygon fill="#000000" stroke="#000000" points="2135.1189,-246.5001 2145.1188,-243 2135.1188,-239.5001 2135.1189,-246.5001"/>
</g>
<!-- AppComponent  -->
<g id="node22" class="node">
<title>AppComponent </title>
<polygon fill="#80b1d3" stroke="#000000" points="2241.439,-328 2132.561,-328 2132.561,-292 2241.439,-292 2241.439,-328"/>
<text text-anchor="middle" x="2187" y="-305.8" font-family="Times,serif" font-size="14.00" fill="#000000">AppComponent </text>
</g>
<!-- AppModule&#45;&gt;AppComponent  -->
<g id="edge24" class="edge">
<title>AppModule&#45;&gt;AppComponent </title>
<path fill="none" stroke="#000000" stroke-dasharray="1,5" d="M2187,-263.1061C2187,-263.1061 2187,-281.991 2187,-281.991"/>
<polygon fill="#000000" stroke="#000000" points="2183.5001,-281.9909 2187,-291.991 2190.5001,-281.991 2183.5001,-281.9909"/>
</g>
<!-- MaterailModule -->
<g id="node20" class="node">
<title>MaterailModule</title>
<polygon fill="#8dd3c7" stroke="#000000" points="1099.4706,-198 1096.4706,-202 1075.4706,-202 1072.4706,-198 992.5294,-198 992.5294,-162 1099.4706,-162 1099.4706,-198"/>
<text text-anchor="middle" x="1046" y="-175.8" font-family="Times,serif" font-size="14.00" fill="#000000">MaterailModule</text>
</g>
<!-- MaterailModule&#45;&gt;AppModule -->
<g id="edge22" class="edge">
<title>MaterailModule&#45;&gt;AppModule</title>
<path fill="none" stroke="#000000" d="M1046,-198.1061C1046,-217.3391 1046,-245 1046,-245 1046,-245 2135.038,-245 2135.038,-245"/>
<polygon fill="#000000" stroke="#000000" points="2135.0381,-248.5001 2145.038,-245 2135.038,-241.5001 2135.0381,-248.5001"/>
</g>
<!-- AppRoutingMudule -->
<g id="node21" class="node">
<title>AppRoutingMudule</title>
<polygon fill="#8dd3c7" stroke="#000000" points="974.2744,-198 971.2744,-202 950.2744,-202 947.2744,-198 845.7256,-198 845.7256,-162 974.2744,-162 974.2744,-198"/>
<text text-anchor="middle" x="910" y="-175.8" font-family="Times,serif" font-size="14.00" fill="#000000">AppRoutingMudule</text>
</g>
<!-- AppRoutingMudule&#45;&gt;AppModule -->
<g id="edge23" class="edge">
<title>AppRoutingMudule&#45;&gt;AppModule</title>
<path fill="none" stroke="#000000" d="M910,-198.2228C910,-218.3652 910,-248 910,-248 910,-248 2135.2379,-248 2135.2379,-248"/>
<polygon fill="#000000" stroke="#000000" points="2135.238,-251.5001 2145.2379,-248 2135.2379,-244.5001 2135.238,-251.5001"/>
</g>
<!-- AuthService -->
<g id="node23" class="node">
<title>AuthService</title>
<ellipse fill="#fdb462" stroke="#000000" cx="763" cy="-180" rx="59.1083" ry="18"/>
<text text-anchor="middle" x="763" y="-175.8" font-family="Times,serif" font-size="14.00" fill="#000000">AuthService</text>
</g>
<!-- AuthService&#45;&gt;AppModule -->
<g id="edge25" class="edge">
<title>AuthService&#45;&gt;AppModule</title>
<path fill="none" stroke="#000000" d="M763,-198.2843C763,-219.3211 763,-251 763,-251 763,-251 2135.1536,-251 2135.1536,-251"/>
<polygon fill="#000000" stroke="#000000" points="2135.1536,-254.5001 2145.1536,-251 2135.1535,-247.5001 2135.1536,-254.5001"/>
</g>
<!-- CourseDetailSerivce -->
<g id="node24" class="node">
<title>CourseDetailSerivce</title>
<ellipse fill="#fdb462" stroke="#000000" cx="595" cy="-180" rx="90.8839" ry="18"/>
<text text-anchor="middle" x="595" y="-175.8" font-family="Times,serif" font-size="14.00" fill="#000000">CourseDetailSerivce</text>
</g>
<!-- CourseDetailSerivce&#45;&gt;AppModule -->
<g id="edge26" class="edge">
<title>CourseDetailSerivce&#45;&gt;AppModule</title>
<path fill="none" stroke="#000000" d="M595,-198.0449C595,-219.6623 595,-253 595,-253 595,-253 2135.2362,-253 2135.2362,-253"/>
<polygon fill="#000000" stroke="#000000" points="2135.2362,-256.5001 2145.2362,-253 2135.2361,-249.5001 2135.2362,-256.5001"/>
</g>
<!-- UserService -->
<g id="node25" class="node">
<title>UserService</title>
<ellipse fill="#fdb462" stroke="#000000" cx="428" cy="-180" rx="58.4415" ry="18"/>
<text text-anchor="middle" x="428" y="-175.8" font-family="Times,serif" font-size="14.00" fill="#000000">UserService</text>
</g>
<!-- UserService&#45;&gt;AppModule -->
<g id="edge27" class="edge">
<title>UserService&#45;&gt;AppModule</title>
<path fill="none" stroke="#000000" d="M428,-198.0109C428,-220.4852 428,-256 428,-256 428,-256 2135.2538,-256 2135.2538,-256"/>
<polygon fill="#000000" stroke="#000000" points="2135.2538,-259.5001 2145.2538,-256 2135.2538,-252.5001 2135.2538,-259.5001"/>
</g>
<!-- LanguageService -->
<g id="node26" class="node">
<title>LanguageService</title>
<ellipse fill="#fdb462" stroke="#000000" cx="274" cy="-180" rx="78.1308" ry="18"/>
<text text-anchor="middle" x="274" y="-175.8" font-family="Times,serif" font-size="14.00" fill="#000000">LanguageService</text>
</g>
<!-- LanguageService&#45;&gt;AppModule -->
<g id="edge28" class="edge">
<title>LanguageService&#45;&gt;AppModule</title>
<path fill="none" stroke="#000000" d="M274,-198.0908C274,-221.1328 274,-258 274,-258 274,-258 2135.2652,-258 2135.2652,-258"/>
<polygon fill="#000000" stroke="#000000" points="2135.2652,-261.5001 2145.2652,-258 2135.2652,-254.5001 2135.2652,-261.5001"/>
</g>
<!-- WelcomeService -->
<g id="node27" class="node">
<title>WelcomeService</title>
<ellipse fill="#fdb462" stroke="#000000" cx="101" cy="-180" rx="76.983" ry="18"/>
<text text-anchor="middle" x="101" y="-175.8" font-family="Times,serif" font-size="14.00" fill="#000000">WelcomeService</text>
</g>
<!-- WelcomeService&#45;&gt;AppModule -->
<g id="edge29" class="edge">
<title>WelcomeService&#45;&gt;AppModule</title>
<path fill="none" stroke="#000000" d="M101,-198.3802C101,-222.2785 101,-261 101,-261 101,-261 2135.3314,-261 2135.3314,-261"/>
<polygon fill="#000000" stroke="#000000" points="2135.3314,-264.5001 2145.3314,-261 2135.3313,-257.5001 2135.3314,-264.5001"/>
</g>
<!-- AuthGuard -->
<g id="node28" class="node">
<title>AuthGuard</title>
<ellipse fill="#fdb462" stroke="#000000" cx="910" cy="-104" rx="54.4566" ry="18"/>
<text text-anchor="middle" x="910" y="-99.8" font-family="Times,serif" font-size="14.00" fill="#000000">AuthGuard</text>
</g>
<!-- AuthGuard&#45;&gt;AppRoutingMudule -->
<g id="edge30" class="edge">
<title>AuthGuard&#45;&gt;AppRoutingMudule</title>
<path fill="none" stroke="#000000" d="M910,-122.0109C910,-122.0109 910,-151.855 910,-151.855"/>
<polygon fill="#000000" stroke="#000000" points="906.5001,-151.8549 910,-161.855 913.5001,-151.855 906.5001,-151.8549"/>
</g>
</g>
</svg>
